<?xml version="1.0" standalone="no"?>
<!DOCTYPE svg PUBLIC "-//W3C//DTD SVG 20010904//EN"
 "http://www.w3.org/TR/2001/REC-SVG-20010904/DTD/svg10.dtd">
<svg version="1.0" xmlns="http://www.w3.org/2000/svg"
 width="1178.000000pt" height="626.000000pt" viewBox="0 0 1178.000000 626.000000"
 preserveAspectRatio="xMidYMid meet">

<g transform="translate(0.000000,626.000000) scale(0.100000,-0.100000)"
fill="#000000" stroke="none">
<path d="M1505 5918 c-3 -8 -4 -637 -3 -1398 l3 -1385 27 -74 c63 -172 191
-293 367 -345 48 -14 134 -16 681 -16 547 0 633 2 681 16 176 53 304 173 368
348 l26 71 5 495 c5 485 5 496 27 536 24 44 74 93 126 121 28 16 75 19 407 24
430 7 444 9 610 91 91 45 118 64 196 143 105 104 159 190 202 318 l30 88 22
-67 c68 -212 208 -378 402 -479 159 -83 188 -87 633 -95 268 -5 403 -11 430
-19 121 -38 252 -144 313 -252 38 -67 72 -192 72 -263 -1 -230 -158 -444 -379
-518 l-66 -23 -1040 -5 -1040 -5 -57 -23 c-77 -31 -169 -94 -214 -145 -77 -89
-134 -223 -134 -313 l0 -45 1288 3 1287 3 94 28 c199 58 355 151 495 297 131
136 210 272 260 443 30 104 50 270 43 351 l-6 61 38 -105 c88 -244 199 -419
386 -605 188 -189 370 -304 614 -389 164 -57 274 -77 466 -83 149 -4 183 -2
274 17 172 35 339 107 477 206 92 65 184 161 212 222 23 52 24 53 5 85 -36 60
-140 97 -278 97 -73 0 -252 -26 -306 -45 -132 -47 -364 -60 -523 -31 -410 78
-738 386 -846 796 -28 107 -37 304 -21 422 42 292 222 572 474 739 162 106
344 165 546 175 142 7 213 24 301 70 124 65 247 225 266 346 6 35 6 36 -42 52
-171 56 -418 84 -604 67 -157 -15 -247 -33 -391 -81 -549 -182 -954 -644
-1071 -1223 -19 -94 -23 -143 -23 -313 l0 -201 -21 57 c-47 132 -156 294 -265
394 -134 125 -300 216 -476 263 -95 26 -109 26 -488 32 -443 7 -429 4 -512 94
-99 108 -95 257 11 363 59 58 122 84 209 84 225 0 448 183 502 412 8 35 15 78
15 97 l0 33 -332 -5 c-375 -5 -397 -8 -553 -81 -199 -94 -358 -274 -420 -477
-9 -30 -19 -61 -22 -69 -2 -8 -15 17 -27 55 -88 272 -295 470 -571 547 -76 21
-102 22 -548 26 -307 2 -493 0 -540 -8 -169 -25 -329 -142 -400 -291 -52 -109
-57 -151 -56 -442 1 -248 1 -259 15 -203 21 85 71 172 139 242 74 75 150 118
251 144 71 18 111 20 523 20 273 0 460 -4 483 -10 59 -17 130 -71 163 -124 24
-40 30 -62 33 -123 4 -64 1 -80 -23 -128 -14 -30 -44 -70 -67 -89 -76 -65 -81
-66 -584 -66 -290 0 -472 -4 -506 -11 -195 -40 -361 -200 -412 -396 -14 -53
-16 -170 -17 -874 -1 -448 -4 -803 -6 -789 -24 143 -122 292 -242 370 -102 65
-143 73 -391 80 -261 7 -300 17 -370 98 -73 83 -70 30 -70 1133 0 678 -3 1005
-11 1041 -31 148 -142 294 -276 362 -102 51 -238 81 -248 54z"/>
<path d="M2080 2080 c-197 -27 -324 -138 -377 -331 -16 -57 -18 -116 -18 -539
0 -419 2 -482 17 -537 63 -227 215 -333 476 -333 165 0 263 32 354 118 58 54
102 135 123 224 22 94 22 540 -1 562 -13 14 -50 16 -249 16 -230 0 -234 0
-249 -22 -21 -29 -20 -61 2 -87 16 -20 28 -21 187 -23 l170 -3 3 -125 c7 -299
-36 -418 -176 -487 -52 -25 -67 -28 -162 -28 -130 1 -188 22 -255 97 -79 89
-80 93 -80 638 l0 475 24 59 c46 116 136 175 278 184 204 12 328 -76 364 -257
11 -58 15 -65 46 -77 38 -16 74 -10 99 17 25 28 15 138 -20 215 -81 177 -307
277 -556 244z"/>
<path d="M7476 1954 c-14 -13 -16 -55 -16 -300 l0 -284 38 16 c20 9 54 23 75
32 l37 15 0 253 c0 250 0 253 -22 268 -29 21 -92 20 -112 0z"/>
<path d="M8780 1637 l-75 -43 -3 -597 -2 -598 24 -24 c33 -33 79 -33 111 0
l25 24 0 641 c0 352 -1 640 -2 640 -2 -1 -37 -20 -78 -43z"/>
<path d="M3404 1476 c-71 -17 -133 -56 -188 -117 l-46 -51 0 64 c0 50 -4 69
-18 81 -26 24 -87 22 -112 -3 -19 -19 -20 -33 -20 -535 l0 -516 25 -24 c29
-30 74 -32 106 -6 l24 19 5 359 5 358 30 58 c36 72 109 140 173 161 26 9 87
19 135 23 84 6 89 7 103 34 18 35 10 74 -19 94 -26 18 -130 19 -203 1z"/>
<path d="M4165 1479 c-172 -35 -318 -178 -354 -347 -14 -66 -15 -360 -1 -433
24 -131 120 -252 242 -309 l63 -29 185 34 c378 70 395 77 354 132 -30 41 -64
40 -131 -1 -32 -19 -78 -40 -103 -45 -106 -24 -248 -4 -324 46 -96 63 -136
139 -136 261 l0 82 319 0 c315 0 318 0 352 23 51 34 64 69 64 167 0 105 -21
169 -80 248 -49 68 -142 135 -218 157 -68 20 -170 26 -232 14z m214 -148 c97
-50 159 -140 168 -248 8 -102 21 -98 -306 -101 l-281 -3 0 78 c0 62 5 88 24
128 40 81 99 135 178 161 58 19 164 11 217 -15z"/>
<path d="M5385 1476 c-74 -19 -125 -48 -178 -105 l-47 -50 0 54 c0 42 -5 60
-20 75 -24 24 -77 26 -108 4 l-22 -15 0 -445 c0 -244 3 -444 8 -444 4 0 39 9
77 18 l70 18 5 280 c5 265 6 281 28 321 97 183 325 209 466 52 67 -74 76 -112
76 -316 0 -95 3 -173 6 -173 3 0 39 10 80 22 l74 21 0 142 c0 78 -5 167 -10
196 -31 169 -171 312 -338 348 -65 14 -102 13 -167 -3z"/>
<path d="M6570 1479 c-165 -32 -319 -190 -350 -358 -12 -64 -13 -201 -2 -201
4 0 39 11 78 23 l69 24 5 79 c7 97 33 156 96 214 63 58 115 80 194 80 101 0
189 -50 255 -144 l21 -29 72 27 72 28 -17 30 c-39 69 -124 148 -197 183 -104
51 -192 64 -296 44z"/>
<path d="M9563 1475 c-162 -35 -297 -163 -338 -320 -18 -72 -21 -385 -4 -467
34 -160 155 -281 334 -334 88 -26 249 -24 340 4 91 28 158 70 175 111 12 29
11 35 -7 59 -29 40 -63 39 -130 -2 -66 -40 -122 -55 -208 -56 -127 0 -249 54
-304 134 -40 59 -51 99 -51 187 l0 79 318 0 c297 0 319 1 349 20 61 37 86 129
63 242 -34 177 -174 314 -354 347 -74 14 -105 13 -183 -4z m232 -149 c84 -42
148 -131 161 -228 9 -62 0 -92 -31 -106 -18 -8 -110 -12 -290 -12 l-265 0 0
74 c0 83 11 124 51 182 78 115 242 154 374 90z"/>
<path d="M8153 1315 l-72 -34 31 -33 c17 -18 43 -58 57 -88 25 -53 26 -61 26
-250 0 -193 0 -196 -28 -251 -32 -67 -100 -133 -164 -161 -56 -25 -168 -22
-221 6 -48 25 -111 84 -144 135 l-28 45 0 188 c0 103 -3 188 -7 188 -5 0 -38
-12 -75 -27 l-68 -28 0 -312 c0 -311 0 -312 22 -327 33 -23 75 -20 103 9 20
19 25 34 25 74 l0 51 40 -44 c148 -161 398 -160 559 2 63 63 100 125 126 215
14 48 16 94 13 270 -3 208 -4 213 -31 272 -30 64 -76 136 -86 134 -3 0 -38
-16 -78 -34z"/>
<path d="M7029 842 l-67 -26 -5 -58 c-10 -109 -81 -208 -184 -255 -48 -22 -65
-25 -128 -21 -85 6 -143 34 -197 97 l-33 39 -72 -27 -73 -27 43 -54 c165 -210
448 -235 643 -58 110 102 154 196 154 335 0 45 -3 83 -7 82 -5 -1 -38 -13 -74
-27z"/>
</g>
</svg>
