<?xml version="1.0" standalone="no"?>
<!DOCTYPE svg PUBLIC "-//W3C//DTD SVG 20010904//EN"
 "http://www.w3.org/TR/2001/REC-SVG-20010904/DTD/svg10.dtd">
<svg version="1.0" xmlns="http://www.w3.org/2000/svg"
 width="400.000000pt" height="400.000000pt" viewBox="0 0 400.000000 400.000000"
 preserveAspectRatio="xMidYMid meet">

<g transform="translate(0.000000,400.000000) scale(0.100000,-0.100000)"
fill="#000000" stroke="none">
<path d="M1685 3824 c-116 -21 -199 -48 -293 -93 -320 -156 -624 -495 -703
-786 -51 -185 -15 -572 78 -845 122 -361 409 -692 730 -842 141 -66 253 -90
423 -91 164 0 258 18 415 78 461 177 865 652 977 1149 28 123 30 348 5 455
-42 175 -120 320 -242 449 -170 180 -520 388 -805 478 -178 57 -431 77 -585
48z m-358 -740 c26 -9 62 -27 80 -41 43 -33 82 -115 85 -178 l3 -50 -62 -3
c-60 -3 -63 -2 -63 20 -1 36 -35 102 -66 127 -25 20 -38 22 -93 19 -61 -4 -66
-7 -101 -45 -50 -57 -61 -98 -67 -248 -8 -200 27 -308 111 -346 53 -24 90 -24
135 2 40 22 69 66 80 121 6 31 9 33 55 36 63 4 80 -10 72 -62 -24 -149 -116
-226 -271 -226 -170 0 -263 89 -300 286 -29 147 -12 336 38 443 29 62 94 125
148 144 58 20 157 21 216 1z m656 -17 c55 -33 81 -62 109 -122 20 -44 23 -69
26 -200 1 -82 -1 -235 -5 -340 l-8 -190 -52 -3 -53 -3 0 299 c0 331 -7 392
-47 434 -80 84 -224 46 -252 -66 -7 -28 -11 -160 -11 -356 l0 -311 -52 3 -53
3 0 430 0 430 55 0 c37 0 55 -4 55 -12 0 -17 9 -17 48 3 53 28 79 34 140 30
37 -3 71 -13 100 -29z m601 17 c22 -21 20 -34 -8 -69 -22 -27 -29 -30 -84 -30
-65 0 -97 -16 -136 -69 -20 -26 -21 -42 -24 -367 l-3 -339 -53 0 c-40 0 -55 4
-60 16 -3 9 -6 202 -6 429 0 467 -6 435 79 435 34 0 41 -3 41 -20 0 -25 -1
-25 56 5 57 31 172 36 198 9z m393 -13 c53 -26 79 -62 65 -88 -17 -30 -49 -56
-57 -44 -14 24 -86 51 -132 51 -149 0 -194 -172 -61 -237 12 -7 57 -27 100
-46 133 -60 198 -143 198 -252 0 -53 -31 -126 -70 -165 -115 -115 -362 -101
-430 24 -13 25 -12 29 17 58 l32 31 36 -32 c48 -42 74 -51 143 -51 100 0 161
63 149 153 -8 56 -39 84 -156 139 -131 62 -169 91 -197 153 -79 169 56 343
256 332 40 -3 81 -12 107 -26z"/>
<path d="M1818 970 c-61 -18 -128 -76 -128 -110 0 -6 16 -18 36 -26 36 -15 36
-15 70 20 42 43 83 54 123 30 16 -10 32 -28 36 -41 11 -44 -21 -87 -144 -198
-115 -103 -121 -110 -121 -147 l0 -38 190 0 190 0 0 45 0 45 -115 0 c-63 0
-115 4 -115 9 0 5 35 36 79 69 136 106 167 159 142 242 -25 84 -140 131 -243
100z"/>
<path d="M2755 967 c-51 -17 -95 -46 -95 -61 0 -13 41 -56 53 -56 3 0 23 11
43 25 79 54 182 13 154 -60 -12 -30 -63 -55 -115 -55 -34 0 -35 -1 -35 -39 l0
-39 66 -4 c75 -5 104 -27 104 -78 0 -72 -110 -92 -195 -34 l-37 25 -33 -21
c-40 -25 -38 -39 14 -74 55 -38 135 -53 216 -39 89 15 130 47 144 110 13 61
-7 107 -61 142 l-37 24 32 21 c81 55 72 158 -19 201 -48 23 -147 29 -199 12z"/>
<path d="M960 725 c0 -135 -1 -248 -2 -252 -2 -5 23 -9 55 -11 l57 -3 0 256 0
255 -55 0 -55 0 0 -245z"/>
<path d="M1175 958 c-3 -7 -4 -121 -3 -253 l3 -240 48 -3 47 -3 0 162 c0 130
3 161 13 151 6 -7 59 -79 117 -160 l106 -147 47 -3 47 -3 0 255 0 256 -45 0
-45 0 0 -157 c0 -126 -3 -155 -12 -145 -7 7 -58 77 -113 155 l-100 142 -53 3
c-36 2 -54 -1 -57 -10z"/>
<path d="M2160 716 l0 -256 60 0 60 0 0 100 0 100 88 0 c149 0 217 53 208 163
-4 55 -28 93 -77 122 -29 17 -56 20 -186 23 l-153 4 0 -256z m275 149 c14 -13
25 -36 25 -50 0 -14 -11 -37 -25 -50 -21 -22 -33 -25 -90 -25 l-65 0 0 75 0
75 65 0 c57 0 69 -3 90 -25z"/>
</g>
</svg>
